PathFileType	4	(X/Y/Z)	C:\Users\willi\Documents\UniDataLokal\DATA_Hans_PhD\TD01\3DGAIT_A_W12\marker_experimental.trc
DataRate	CameraRate	NumFrames	NumMarkers	Units	OrigDataRate	OrigDataStartFrame	OrigNumFrames
100.000000	100.000000	4	76	mm	100.000000	130	174
Frame#	Time	RBAK			C7			CLAV			T10			STRN			RASI			RPSI			LPSI			LASI			RTHI1			RTHI2			RTHI3			RTHI			RKNE			RKNEM			RPAT			RTIB1			RTIB2			RTIB3			RTIB			RANK			RANKM			RHEEL			RTOE			RM5			LTHI1			LTHI2			LTHI3			LTHI			LKNE			LKNEM			LPAT			LTIB1			LTIB2			LTIB3			LTIB			LANK			LANKM			LHEEL			LTOE			LM5			*41			*42			*43			*44			*45			*46			*47			*48			*49			*50			*51			*52			*53			*54			*55			*56			*57			*58			*59			*60			*61			*62			*63			*64			*65			*66			*67			*68			*69			*70			*71			*72			*73			*74			*75			
		X1	Y1	Z1	X2	Y2	Z2	X3	Y3	Z3	X4	Y4	Z4	X5	Y5	Z5	X6	Y6	Z6	X7	Y7	Z7	X8	Y8	Z8	X9	Y9	Z9	X10	Y10	Z10	X11	Y11	Z11	X12	Y12	Z12	X13	Y13	Z13	X14	Y14	Z14	X15	Y15	Z15	X16	Y16	Z16	X17	Y17	Z17	X18	Y18	Z18	X19	Y19	Z19	X20	Y20	Z20	X21	Y21	Z21	X22	Y22	Z22	X23	Y23	Z23	X24	Y24	Z24	X25	Y25	Z25	X26	Y26	Z26	X27	Y27	Z27	X28	Y28	Z28	X29	Y29	Z29	X30	Y30	Z30	X31	Y31	Z31	X32	Y32	Z32	X33	Y33	Z33	X34	Y34	Z34	X35	Y35	Z35	X36	Y36	Z36	X37	Y37	Z37	X38	Y38	Z38	X39	Y39	Z39	X40	Y40	Z40	X41	Y41	Z41	X42	Y42	Z42	X43	Y43	Z43	X44	Y44	Z44	X45	Y45	Z45	X46	Y46	Z46	X47	Y47	Z47	X48	Y48	Z48	X49	Y49	Z49	X50	Y50	Z50	X51	Y51	Z51	X52	Y52	Z52	X53	Y53	Z53	X54	Y54	Z54	X55	Y55	Z55	X56	Y56	Z56	X57	Y57	Z57	X58	Y58	Z58	X59	Y59	Z59	X60	Y60	Z60	X61	Y61	Z61	X62	Y62	Z62	X63	Y63	Z63	X64	Y64	Z64	X65	Y65	Z65	X66	Y66	Z66	X67	Y67	Z67	X68	Y68	Z68	X69	Y69	Z69	X70	Y70	Z70	X71	Y71	Z71	X72	Y72	Z72	X73	Y73	Z73	X74	Y74	Z74	X75	Y75	Z75	X76	Y76	Z76	

131	1.3	482.8530883789063	1207.521240234375	307.4276733398438	477.8917541503907	1226.227661132812	180.098617553711	588.7989501953126	1150.699096679688	189.009017944336	413.7298583984376	970.0433959960938	186.5244598388672	611.1632690429689	944.7860717773438	210.0365295410157	527.3347778320312	873.0580444335938	315.6028442382813	383.2631225585938	871.6555786132812	235.4327545166016	388.0327148437501	866.5737915039062	155.9629821777344	532.0346069335938	850.2657470703125	86.69429016113284	418.7400817871094	613.8635864257812	308.169677734375	469.3158264160157	565.2875366210938	317.5264587402344	436.2272644042969	515.4920043945312	291.2758178710938	455.2638854980469	529.9664306640625	341.6083374023438	464.3582458496094	420.5427551269531	278.3744506835938	490.9990844726562	427.8692626953124	171.1053009033203	542.2296142578125	429.5041503906249	235.2018280029297	463.9304504394531	228.9998321533203	192.085433959961	442.9257507324219	181.7932739257812	233.857177734375	438.7149963378906	141.6834259033203	179.3844299316407	389.24560546875	153.9351348876953	277.6416625976562	379.5237426757812	68.85416412353513	217.9761810302735	403.1566162109375	80.56304931640622	145.2252807617188	331.1411437988281	51.49013519287107	169.8825225830078	504.7978820800781	31.22529792785641	211.9954986572266	467.2815551757812	17.90290451049802	246.2919006347657	517.6775512695312	578.2841796875	73.90106201171878	571.4420776367188	551.178466796875	47.44815444946293	563.85791015625	491.7277221679687	74.72163391113284	590.8724975585938	539.9085693359375	12.22751617431644	617.7843017578125	456.4591064453124	48.19009780883793	637.3544311523438	441.3248291015624	154.5296783447266	694.4375	462.6537170410156	97.98799133300786	544.0064086914062	275.4787597656249	92.67407989501956	494.8681030273438	257.0528564453124	43.38478851318362	478.7608642578125	200.6734924316406	93.15874481201175	440.3655395507812	259.5074462890625	9.648501396179226	384.8033752441406	177.9062042236328	55.12417602539065	420.1734924316406	164.9134979248047	123.4528198242188	345.093505859375	181.2012481689453	114.4562225341797	455.4708557128906	59.87114334106442	51.17853927612308	422.3060913085938	74.46518707275388	22.50518798828127	nan	nan	nan	nan	nan	nan	nan	nan	nan	nan	nan	nan	nan	nan	nan	nan	nan	nan	nan	nan	nan	nan	nan	nan	nan	nan	nan	nan	nan	nan	nan	nan	nan	nan	nan	nan	nan	nan	nan	nan	nan	nan	nan	nan	nan	nan	nan	nan	nan	nan	nan	nan	nan	nan	nan	nan	nan	nan	nan	nan	nan	nan	nan	nan	nan	nan	nan	nan	nan	nan	nan	nan	nan	nan	nan	nan	nan	nan	nan	nan	nan	nan	nan	nan	nan	nan	nan	nan	nan	nan	nan	nan	nan	nan	nan	nan	nan	nan	nan	nan	nan	nan	nan	nan	nan	
132	1.31	497.2014770507813	1209.466918945312	307.6153869628907	491.3006591796876	1228.01123046875	180.1086578369141	602.0271606445314	1152.4560546875	188.3456268310547	426.8679199218751	971.8842163085938	185.6598663330078	623.7423095703126	946.9718017578125	210.190673828125	539.085693359375	874.9737548828125	315.4271545410157	395.8661193847657	873.7539672851562	233.7724609375	401.3666687011719	868.5986938476562	154.4096221923828	545.9454956054688	852.674560546875	86.60597229003909	425.5612792968751	616.7893676757812	306.994873046875	474.9727783203126	566.92822265625	316.4845886230469	440.5775756835938	517.9188842773438	290.088134765625	459.7437133789063	532.0222778320312	340.5493774414062	466.680419921875	422.2625122070312	277.2523803710938	493.421142578125	428.8954772949218	169.9764862060547	544.3101196289062	430.0414733886718	234.3053436279297	465.2455139160156	230.3377075195312	191.7937469482422	443.8949890136719	183.4256591796875	233.7600860595703	439.6614379882812	143.0915374755859	179.5067443847657	389.9379272460938	156.1841583251953	277.4785766601562	380.0693664550781	70.64969635009763	218.2649536132813	403.8257446289062	82.08448791503903	145.4533386230469	331.7220764160156	53.68517303466795	170.2510070800782	504.935546875	31.18781661987301	212.1067962646485	467.3125610351562	17.93785858154294	246.2251739501953	537.3988647460938	582.223876953125	72.99749755859378	592.2362670898438	556.3297729492188	47.76054763793949	584.9113159179688	496.4615478515624	73.93801879882817	613.0236206054688	545.839599609375	13.0382871627808	640.3321533203125	462.2877807617187	49.30293273925786	658.03173828125	447.1314697265624	155.834701538086	715.69970703125	470.9892272949218	100.8316040039063	576.3971557617188	275.9050292968749	92.32989501953128	529.039306640625	254.3375701904297	42.49318695068363	516.1879272460938	196.8971710205078	91.89731597900393	474.7344665527344	253.3941955566406	8.130275726318388	424.1771850585938	168.0908660888672	52.74348831176761	459.8058471679688	157.0746612548828	121.2949371337891	383.8074340820312	167.9719085693359	111.8249740600586	503.4718933105469	56.04937744140622	48.42810058593753	469.4287109375	68.19661712646482	19.72024345397952	nan	nan	nan	nan	nan	nan	nan	nan	nan	nan	nan	nan	nan	nan	nan	nan	nan	nan	nan	nan	nan	nan	nan	nan	nan	nan	nan	nan	nan	nan	nan	nan	nan	nan	nan	nan	nan	nan	nan	nan	nan	nan	nan	nan	nan	nan	nan	nan	nan	nan	nan	nan	nan	nan	nan	nan	nan	nan	nan	nan	nan	nan	nan	nan	nan	nan	nan	nan	nan	nan	nan	nan	nan	nan	nan	nan	nan	nan	nan	nan	nan	nan	nan	nan	nan	nan	nan	nan	nan	nan	nan	nan	nan	nan	nan	nan	nan	nan	nan	nan	nan	nan	nan	nan	nan	
133	1.32	511.3824157714844	1210.99609375	307.7897644042969	504.6692810058594	1229.47265625	180.166015625	615.2355346679689	1153.896118164062	187.7414245605469	440.0743713378907	973.3359985351562	184.6492767333985	636.4454345703126	948.7658081054688	210.1928100585938	550.9448852539062	876.5673217773438	315.1150207519532	408.5797119140626	875.4639892578125	231.9397277832032	414.8357849121094	870.168701171875	152.7036895751953	560.0263671875	854.5841064453125	86.46434020996097	432.5431213378907	619.5169067382812	305.7613525390625	480.7917480468751	568.4544067382812	315.3950195312501	445.2486267089844	520.201904296875	288.8442993164062	464.4642333984376	534.0001831054688	339.4271240234376	469.2687377929688	423.9286499023437	276.1457214355469	496.2713012695312	429.9217224121093	168.8678588867188	546.7059936523438	430.5031433105468	233.421875	466.76904296875	231.6431121826172	191.4706268310547	445.041259765625	185.0226135253906	233.5833129882813	440.7672424316406	144.4997100830078	179.5621185302735	390.8222961425781	158.4536437988281	277.2264404296875	380.7076416015625	72.52427673339841	218.4747161865235	404.6056518554688	83.62545776367185	145.6012115478516	332.3752136230469	56.00876235961912	170.5374908447266	505.1072082519531	31.15239715576169	212.1861724853516	467.3720092773438	18.00519180297849	246.1341400146485	556.3082275390625	585.4075927734375	72.28623199462893	612.1348876953125	560.6326293945312	48.21330642700199	605.0097045898438	500.3903808593749	73.32720184326176	634.0538330078125	550.84423828125	13.97333812713627	661.7453002929688	467.1856384277343	50.37083435058598	677.87255859375	452.0116271972656	157.0548553466797	735.87353515625	478.3142395019531	103.5225906372071	608.59423828125	275.9964294433593	91.96862792968754	563.2423095703125	251.316665649414	41.67441940307621	553.9657592773438	192.9497375488281	90.65332031250003	509.3369750976562	246.8919677734375	6.749638080596955	464.4086303710938	158.042495727539	50.50081253051761	500.1966857910156	149.0910949707031	119.2750473022461	423.7169189453125	154.5558166503906	109.2983474731446	551.9107055664062	52.53889083862301	46.12172698974613	517.174072265625	62.07878875732419	17.29443550109866	nan	nan	nan	nan	nan	nan	nan	nan	nan	nan	nan	nan	nan	nan	nan	nan	nan	nan	nan	nan	nan	nan	nan	nan	nan	nan	nan	nan	nan	nan	nan	nan	nan	nan	nan	nan	nan	nan	nan	nan	nan	nan	nan	nan	nan	nan	nan	nan	nan	nan	nan	nan	nan	nan	nan	nan	nan	nan	nan	nan	nan	nan	nan	nan	nan	nan	nan	nan	nan	nan	nan	nan	nan	nan	nan	nan	nan	nan	nan	nan	nan	nan	nan	nan	nan	nan	nan	nan	nan	nan	nan	nan	nan	nan	nan	nan	nan	nan	nan	nan	nan	nan	nan	nan	nan	
134	1.33	525.4113769531251	1212.081909179688	307.9511413574219	518.0106811523439	1230.593139648438	180.2647094726563	628.4378662109376	1154.995361328125	187.180892944336	453.3545532226563	974.381103515625	183.4990234375	649.2936401367189	950.130126953125	210.0762939453125	562.9046020507812	877.8215942382812	314.7059326171876	421.4151611328126	876.770751953125	229.9586334228516	428.4468994140626	871.2698364257812	150.8691711425782	574.3041381835938	855.9437866210938	86.30784606933597	439.6974487304688	622.0367431640625	304.4722595214844	486.7802124023438	569.8472900390625	314.2603149414063	450.2420349121094	522.3265991210938	287.5489196777344	469.4615783691407	535.8629150390625	338.2440185546876	472.1266784667969	425.5240783691406	275.0542297363282	499.5414733886719	430.8792724609374	167.7833099365235	549.429931640625	430.8071289062499	232.5478973388672	468.4896850585938	232.9009704589843	191.1149139404297	446.3540649414062	186.5630798339843	233.3237609863282	442.0207214355469	145.8892211914062	179.5452575683594	391.8927001953125	160.7161712646484	276.8901672363281	381.4315185546875	74.45076751708982	218.5995178222657	405.4873352050781	85.16570281982419	145.6712951660157	333.0910949707031	58.44018936157224	170.7323608398438	505.3004760742188	31.1177940368652	212.2281951904297	467.4474792480469	18.10179328918454	246.0133666992188	574.3002319335938	587.6964721679688	71.7643737792969	631.0501708984375	563.96142578125	48.79619598388675	624.0952758789062	503.3887634277343	72.92228698730473	653.8442993164062	554.7662963867188	15.00584697723393	681.986328125	471.0274963378906	51.36228942871098	696.9174194335938	455.8917236328124	158.1512756347657	754.9677734375	484.5103759765624	105.9684982299805	640.5421142578125	275.8336181640624	91.58104705810551	597.4390869140625	248.0937194824218	40.9167404174805	592.0490112304688	189.0000305175781	89.43789672851567	544.1610107421875	240.0856781005859	5.510541915893588	505.4557495117188	147.9582366943359	48.43970108032229	541.3445434570312	141.1894989013672	117.4173431396485	464.8116455078125	141.2349395751953	106.9519958496094	600.6678466796875	49.39350509643551	44.24544906616214	565.4141845703125	56.17956542968746	15.25499916076664	nan	nan	nan	nan	nan	nan	nan	nan	nan	nan	nan	nan	nan	nan	nan	nan	nan	nan	nan	nan	nan	nan	nan	nan	nan	nan	nan	nan	nan	nan	nan	nan	nan	nan	nan	nan	nan	nan	nan	nan	nan	nan	nan	nan	nan	nan	nan	nan	nan	nan	nan	nan	nan	nan	nan	nan	nan	nan	nan	nan	nan	nan	nan	nan	nan	nan	nan	nan	nan	nan	nan	nan	nan	nan	nan	nan	nan	nan	nan	nan	nan	nan	nan	nan	nan	nan	nan	nan	nan	nan	nan	nan	nan	nan	nan	nan	nan	nan	nan	nan	nan	nan	nan	nan	nan	
